<svg xmlns="http://www.w3.org/2000/svg" xmlns:xlink="http://www.w3.org/1999/xlink" version="1.1" x="0px" y="0px" viewBox="0 0 100 125" style="enable-background:new 0 0 100 100;" xml:space="preserve"><path d="M50,30.679c-10.654,0-19.322,8.668-19.322,19.321S39.346,69.321,50,69.321S69.322,60.653,69.322,50S60.654,30.679,50,30.679  z M56.959,59.456c-0.661,0.487-1.603,0.353-2.097-0.319l-4.588-6.235c-0.092,0.009-0.18,0.028-0.274,0.028  c-1.615,0-2.929-1.314-2.929-2.93c0-1.064,0.576-1.989,1.427-2.502L48.5,33.369c0-0.828,0.672-1.5,1.5-1.5  c0.829,0,1.5,0.672,1.5,1.5l-0.002,14.127c0.853,0.513,1.431,1.438,1.431,2.504c0,0.403-0.082,0.787-0.23,1.137l4.579,6.222  C57.769,58.026,57.626,58.965,56.959,59.456z"/><path d="M90.136,41.859l-9.242-0.838c-0.658-2.274-1.562-4.46-2.696-6.522l5.938-7.124c0.497-0.596,0.457-1.472-0.092-2.021  l-9.399-9.399c-0.548-0.549-1.424-0.588-2.021-0.092L65.5,21.802c-2.062-1.135-4.248-2.038-6.522-2.695L58.14,9.864  C58.07,9.092,57.422,8.5,56.646,8.5H43.354c-0.776,0-1.424,0.592-1.494,1.364l-0.838,9.242c-2.274,0.657-4.46,1.561-6.522,2.695  l-7.124-5.938c-0.597-0.497-1.473-0.457-2.021,0.092l-9.399,9.399c-0.549,0.549-0.588,1.425-0.092,2.021l5.938,7.124  c-1.134,2.063-2.038,4.248-2.696,6.522l-9.242,0.838C9.092,41.93,8.5,42.577,8.5,43.354v13.293c0,0.776,0.592,1.424,1.364,1.494  l9.242,0.838c0.658,2.274,1.562,4.46,2.696,6.522l-5.938,7.124c-0.497,0.596-0.457,1.472,0.092,2.021l9.399,9.399  c0.548,0.549,1.425,0.589,2.021,0.092l7.124-5.938c2.062,1.135,4.248,2.038,6.522,2.695l0.838,9.242  c0.07,0.772,0.718,1.364,1.494,1.364h13.293c0.776,0,1.424-0.592,1.494-1.364l0.838-9.242c2.274-0.657,4.46-1.561,6.522-2.695  l7.124,5.938c0.596,0.496,1.472,0.457,2.021-0.092l9.399-9.399c0.549-0.549,0.588-1.425,0.092-2.021l-5.938-7.124  c1.134-2.063,2.038-4.248,2.696-6.522l9.242-0.838c0.772-0.07,1.364-0.718,1.364-1.494V43.354  C91.5,42.577,90.908,41.93,90.136,41.859z M72.322,50c0,12.308-10.014,22.321-22.322,22.321S27.678,62.308,27.678,50  S37.692,27.679,50,27.679S72.322,37.692,72.322,50z"/><text x="0" y="115" fill="#000000" font-size="5px" font-weight="bold" font-family="'Helvetica Neue', Helvetica, Arial-Unicode, Arial, Sans-serif">Created by Athok</text><text x="0" y="120" fill="#000000" font-size="5px" font-weight="bold" font-family="'Helvetica Neue', Helvetica, Arial-Unicode, Arial, Sans-serif">from the Noun Project</text></svg>